# xmcd CD database file generated by Grip 3.2.0
# 
# Track frame offsets:
#       150
#       8262
#       18505
#       32895
#       61912
#       144160
#       159962
#       167430
#       174255
#       185697
#       199300
#       232425
#       247422
#       253465
# 
# Disc length: 3602 seconds
# 
# Revision: 2
# Processed by: cddbd v1.5.2PL0 Copyright (c) Steve Scherf et al.
# Submitted via: Grip 3.2.0
# 
DISCID=be0e100e
DTITLE=Various Artist - Geschichte der Pop Musik CD 50
DYEAR=1998
DGENRE=Jazz
TTITLE0=Einleitung
TTITLE1=Mit Den Veränderungen ...
TTITLE2=Modern Jazz Quartet - Vendome
TTITLE3=Die Aufnahmen ...
TTITLE4=Miles Davis - Shhh - Peaceful
TTITLE5=Blood, Sweat And Tears - I Can't Quit Her
TTITLE6=Nach Der Musik ...
TTITLE7=Blood, Sweat And Tears - Overture
TTITLE8=Diese Overtüre ...
TTITLE9=Electric Flag - Groovin' Is Easy
TTITLE10=Die Kategorisierung ...
TTITLE11=Miles Davis - Bitches Brew
TTITLE12=Besondere Bedeutung ...
TTITLE13=Dave Pike Set - Teaming Up
EXTD=YEAR: 1998
EXTT0=
EXTT1=
EXTT2=
EXTT3=
EXTT4=
EXTT5=
EXTT6=
EXTT7=
EXTT8=
EXTT9=
EXTT10=
EXTT11=
EXTT12=
EXTT13=
PLAYORDER=
